<?xml version="1.0" encoding="UTF-8"?>
<svg width="512pt" height="512pt" version="1.1" viewBox="0 0 512 512" xmlns="http://www.w3.org/2000/svg">
 <g fill="#7e9458">
  <path d="m173.51 417.9c-18.727 10.812-36.969 21.344-50.375 29.082 80.801 56.703 188.47 56.703 269.27 0-16.793-9.6953-33.586-19.387-50.379-29.082-52.137-30.102-116.38-30.102-168.52 0z"/>
  <path d="m356.59 42.656v58.168c0 60.207 32.125 115.84 84.266 145.95 18.719 10.809 36.957 21.34 50.359 29.078 8.7188-98.332-45.117-191.58-134.62-233.19z"/>
  <path d="m158.96 100.82v-58.168c-89.512 41.613-143.35 134.86-134.63 233.19 16.793-9.6953 33.586-19.391 50.375-29.086 52.141-30.105 84.258-85.734 84.258-145.94z"/>
  <path d="m343.77 234.4c0-51.188 0-146.17 0.003906-197.36-25.949-10.234-51.715-15.492-79.602-16.258 0 0-10.078 138.47 79.598 277.39z"/>
  <path d="m171.77 170.95c61.273-51.066 75.543-117.08 78.754-149.71-27.742 0.84375-54.254 6.5-78.762 16.176 0.003906 44.516 0.003906 89.027 0.003906 133.54z"/>
  <path d="m252.36 158.5-55.23 31.883c-44.332 25.594-126.59 73.086-170.92 98.68 4.1133 27.59 12.441 52.535 25.719 77.066 0 0 124.96-60.508 200.43-207.63z"/>
  <path d="m228.19 371.07c-74.859-27.535-139.16-6.8828-169.04 6.6562 14.602 23.602 32.758 43.734 53.391 60.121 38.551-22.262 77.098-44.516 115.65-66.773z"/>
  <path d="m178.24 307.63 55.227 31.887c44.328 25.594 126.59 73.086 170.92 98.684 21.84-17.355 39.273-37.043 53.883-60.809-0.003906 0.003907-114.89-77.961-280.03-69.762z"/>
  <path d="m374.41 222.29c13.586 78.598 63.621 123.96 90.281 143.06 13.141-24.449 21.496-50.234 25.371-76.297-38.555-22.254-77.102-44.512-115.65-66.77z"/>
 </g>
</svg>
