<?xml version="1.0" encoding="UTF-8"?>
<svg width="100pt" height="100pt" version="1.1" viewBox="0 0 100 100" xmlns="http://www.w3.org/2000/svg">
 <path d="m79.016 43.738c10.715-1.1289 13.047-8.7852 13.426-13.266 0.43359-4.7266-0.98438-11.031-3.3906-11.742h-0.003906c-0.89844-0.27344-1.8594 0.16016-2.2461 1.0156-1.6523 3.1172-9.0898 8.0469-10.523 7.5391-0.085938-0.078125-0.125-0.19531-0.10156-0.30469 0.085938-0.82812 1.5508-2.2344 2.5664-2.8984l0.1875-0.14453c9.0625-8.8008 6.0312-16.105 2.8984-20.832v-0.003907c-1.4141-2.1836-3.9375-3.3828-6.5234-3.1016-15.629 1.9414-16.629 9.207-17.746 16.891-0.39453 3.293-1.2305 6.5195-2.4766 9.5938-0.18359 0.25391-0.38672 0.49219-0.60938 0.71094v-0.11719 0.003906c-0.59766-4.4883-0.92969-9.0039-1-13.527v-0.17578c-0.24219-1.6992-1.3359-3.1602-2.8984-3.8672-2.1016-0.82812-4.6836 0-7.9141 2.668-8.6992 7.0039-3.0859 23.891-2.8984 24.645v0.12891h-0.003907c0.66016 1.1953 1.0273 2.5312 1.0742 3.8984-0.13672 0.03125-0.27344 0.03125-0.40625 0-1.043-0.26172-3.6836-5.0312-6.6406-16.785-0.28516-1.1523-1.0859-2.1094-2.1719-2.5977-1.082-0.48438-2.3281-0.44922-3.3789 0.10156-4.3477 2.1367-7.2695 6.3828-7.6992 11.207-1.1758 9.7422 5.7969 21.559 8.4219 23.863 0.47656 0.41406 0.92188 0.86719 1.3359 1.3477 0.61719 0.69141 0.61719 1.7422 0 2.4336-0.55469 0.74609-1.582 0.95312-2.3789 0.48047-2.7969-1.5508-6.5508-10.031-8.8438-17.25-0.73828-2.3203-1.7383-3.625-3.0742-3.9883-0.79688-0.21094-1.6445-0.046874-2.3047 0.44922-5.2188 3.0742-9.6406 21.527-2.4062 35.387 6.1602 11.785 15.047 7.5547 22.051 4.1445 1.668-0.85547 3.3867-1.6094 5.1445-2.2617 4.8281-1.6523 8.4805 6.6094 9.8281 10.234l0.003906 0.003906c1.2852 3.625 3.5586 6.8203 6.5664 9.2188 2.3477 1.9805 5.2969 3.1055 8.3633 3.1875 2.5039-0.046875 4.9414-0.80469 7.0312-2.1875 1.9727-1.2422 3.1836-3.3945 3.2188-5.7266 0.039062-2.3281-1.1133-4.5156-3.0586-5.7969-2.7969-1.707-5.7656-3.1172-8.8594-4.207-0.83984-0.33203-1.7266-0.66797-1.9727-0.8125l0.003907 0.003906c-1.1016-0.51172-1.7031-1.7148-1.4492-2.9023 0.28906-0.66797 1.4492-0.79688 2.9727-0.32031l-0.003906 0.003906c3.2852 1.125 6.3711 2.7695 9.1328 4.8711 1.4492 0.97266 2.8984 1.9844 4.6094 3.0156h0.003906c1.9141 1.1914 4.375 1.0156 6.1016-0.4375 3.4062-2.625 5.6836-9.3516 4.5234-13.324-1.0586-3.6406-5.0742-3.2617-8.3086-2.8984-2.6094 0.24609-5.3203 0.49219-6.6406-0.82812-0.98438-0.98438-0.98438-1.4492-0.98438-1.4492 0.17578-0.34766 2-1.0273 5.1172-0.57812 2.1172 0.30469 9.3945 0.98438 13.41-3.4648 2.7539-3.043 3.3633-7.6836 1.8398-13.785h0.003906c-0.25-1.0742-0.98438-1.9766-1.9883-2.4375-1.3203-0.53125-2.8125-0.44141-4.0586 0.24609-5.7969 2.8984-10.148 3.2461-15.02 1.1875v0.003906c-0.14844-0.042969-0.25391-0.17969-0.26172-0.33594-0.011719-0.55469 0.22656-1.0898 0.65234-1.4492 0.56641-0.62109 2.7695-1.9414 9.7578-2.6797zm-13.277 4.582v-0.003906c0.17188 1.1445 0.9375 2.1094 2.0117 2.5391 5.7969 2.3906 10.945 2 17.395-1.2891h0.003907c0.46484-0.28125 1.0312-0.35156 1.5508-0.19141 0.19922 0.09375 0.33984 0.27734 0.375 0.49609 1.2773 5.1172 0.88281 8.8711-1.1758 11.148-3.0273 3.375-9.0273 2.7656-10.797 2.5352-3.1875-0.46484-6.9883-0.14453-8.1328 2.1445-0.49219 0.98438-0.63672 2.625 1.4492 4.7852 2.0859 2.1602 5.7969 1.957 8.9609 1.6836 3.1602-0.27734 4.9141-0.32031 5.2617 0.88281 0.76953 2.6094-0.82812 8.1484-3.5078 10.148-0.78516 0.75781-1.9883 0.87109-2.9023 0.27344-1.6523-0.98438-3.0742-1.957-4.4492-2.8984-2.9883-2.2461-6.3164-3.9961-9.8594-5.1914-3.668-1.1289-5.7969 0.24609-6.4961 1.9141h0.003907c-0.83203 2.5508 0.31641 5.3281 2.7109 6.5391 0.77734 0.37891 1.5742 0.71094 2.3906 1 2.8906 1.0312 5.668 2.3477 8.293 3.9297 1.1211 0.73047 1.7891 1.9883 1.7695 3.3242-0.023438 1.3398-0.72656 2.5742-1.8711 3.2695-4.0156 2.5352-8.0742 2.2617-12.062-0.8125v0.003906c-2.5938-2.0703-4.5625-4.8203-5.6797-7.9453-1.1992-3.8086-3.2773-7.2852-6.0625-10.148-0.73828-23.008 18.5-41.402 18.699-41.59l0.003906-0.003907c0.58203-0.54688 0.61328-1.4648 0.0625-2.0508-0.54688-0.58203-1.4648-0.61328-2.0508-0.0625-0.78125 0.79688-19.352 18.527-19.586 41.91-0.71484-0.26172-1.4688-0.39844-2.2305-0.40625-0.77734 0.003906-1.543 0.13672-2.2773 0.39062-1.8438 0.69531-3.6523 1.4922-5.4062 2.3906-7.1602 3.4492-13.352 6.4219-18.207-2.8984-6.8164-12.902-2.0898-29.746 1.2461-31.559h0.10156c0.48437 0.57812 0.82422 1.2656 1 2 1.2031 3.7852 5.4961 16.309 10.219 18.848l0.14453 0.074219v-0.003906c2.0195 1.1016 4.5391 0.54297 5.9023-1.3047 1.4609-1.7969 1.4102-4.3906-0.11719-6.1328-0.50391-0.56641-1.0391-1.1055-1.6094-1.6094-2.2617-1.9844-8.4961-12.727-7.4648-21.355v0.003906c0.37109-3.875 2.7344-7.2734 6.2344-8.9766 0.26562-0.12891 0.57422-0.12891 0.83984 0 0.27344 0.125 0.47656 0.36328 0.55078 0.65234 4.5938 18.297 7.7695 18.848 8.9609 18.961v0.003906c1.1445 0.26953 2.3477-0.14062 3.0859-1.0586 1.4492-1.957 0-5.6523-0.52344-6.8555-0.51953-1.207-4.8828-15.848 1.957-21.328 3.1328-2.6094 4.5547-2.4648 5.0742-2.2891 0.72656 0.27734 1 1.2891 1.0586 1.5352 0.066406 4.6719 0.42578 9.3359 1.0742 13.961 0.42188 1.9297 1.4492 2.4922 2.1602 2.6367 1.8281 0.34766 3.3477-1.6836 3.7695-2.3203l0.10156-0.16016v0.003906c1.4219-3.3672 2.3594-6.9219 2.7812-10.555 1.0312-7.4062 1.8125-12.758 15.152-14.41 1.4961-0.19922 2.9727 0.47266 3.8125 1.7266 2.8984 4.4375 4.8281 9.9297-2.4805 17.078-0.76953 0.55078-3.4219 2.582-3.6953 4.9141-0.11328 0.96484 0.22266 1.9258 0.91016 2.6094 0.75 0.77734 1.8477 1.1055 2.9023 0.86719 3.3906-0.42188 9.0469-4.5508 11.598-7.7266 1.3086 3.5586 1.4336 7.4414 0.35938 11.078-1.4492 4.3477-4.8711 6.8555-10.148 7.4062-5.7969 0.60938-9.5664 1.7266-11.367 3.3047h0.003906c-1.2656 0.99219-1.9375 2.5625-1.7812 4.1602z" fill="#35776b"/>
</svg>
