<?xml version="1.0" encoding="UTF-8"?>
<svg width="100pt" height="100pt" version="1.1" viewBox="0 0 100 100" xmlns="http://www.w3.org/2000/svg">
 <g>
  <rect width="100" height="100" fill="#c2dc63"/>
  <path d="m67.516 44.324c1.8281 0.007812 3.543-0.88281 4.5898-2.3789 0.94922-1.293 1.168-2.9844 0.57031-4.4727-0.59375-1.4922-1.9141-2.5664-3.4961-2.8477-1.8438-0.37891-3.7539 0.19922-5.0742 1.5391l-2.0469 2.0273c0.042968-0.51953 0.042968-1.0469 0-1.5664l0.40625-7.6953c0.10156-1.8789-0.74609-3.6836-2.2578-4.8008-1.2656-0.98828-2.9531-1.25-4.457-0.69141s-2.6172 1.8516-2.9375 3.4258c-0.42188 1.832 0.10547 3.7539 1.4062 5.1094l5.2461 5.543c-0.085938 2.4141-1.2461 4.668-3.1602 6.1406l-1.168-6.3125c-0.33594-1.8477-1.582-3.4023-3.3125-4.1367-1.4609-0.66797-3.1602-0.53125-4.4961 0.35938s-2.1172 2.4062-2.0664 4.0078c0.015625 1.8828 0.97656 3.6328 2.5586 4.6523l5.332 3.4766h0.003906c-0.51953 0.53516-0.92188 1.1719-1.1875 1.8711-0.51953 1.6016-0.55859 3.3242-0.10547 4.9531h-4.4531c0.039063-3.5078-0.53906-12.465-7.0586-16.359l-4.3789-5.4531c-1.1406-1.4375-2.9336-2.2031-4.7617-2.0352-1.5625 0.10547-2.9609 1.0078-3.6992 2.3906-0.73828 1.3828-0.70703 3.0508 0.078125 4.4062 0.87891 1.6094 2.5156 2.668 4.3438 2.8125l7.8125 0.65625h0.046875c1.6523 1.3203 2.8984 3.0781 3.6016 5.0703l-4.7695-2.0469c-1.6836-0.73047-3.625-0.5625-5.1562 0.44922-1.332 0.82422-2.1406 2.2812-2.1406 3.8477 0 1.5703 0.80859 3.0234 2.1406 3.8516 1.5352 1.0039 3.4727 1.1719 5.1562 0.44531l5.8242-2.5v0.003906c0.22266 1.4727 0.32422 2.9648 0.30078 4.4609h-7.8711c-2.1719-0.003906-3.9648 1.6914-4.0898 3.8594-0.12109 2.168 1.4688 4.0547 3.625 4.3008l2.3359 15.047c0.097656 0.64844 0.65625 1.1211 1.3125 1.1172h16.707c0.65625 0.003907 1.2148-0.46875 1.3125-1.1172l2.3359-15.047c2.1562-0.24609 3.7461-2.1328 3.625-4.3008-0.125-2.168-1.9219-3.8633-4.0898-3.8594h-5.3594c-0.46484-1.457-1.0938-4.5938 1.543-5.7461l-0.003907-0.003906c1.3359-0.59766 2.5195-1.4922 3.4531-2.6211l7.7812 0.19141zm-35.359-8.6445c-0.94141-0.070313-1.7891-0.60547-2.2578-1.4258-0.36719-0.57812-0.39453-1.3086-0.074219-1.918 0.32031-0.60547 0.94531-0.99219 1.6289-1.0117h0.25c0.85938-0.003907 1.6719 0.37109 2.2266 1.0273l2.9922 3.7266zm5.4375 12.465c-0.87109 0.37891-1.8789 0.30078-2.6836-0.21094-0.59375-0.33984-0.96484-0.97266-0.96484-1.6602s0.37109-1.3203 0.96484-1.6602c0.46094-0.29688 0.99609-0.45703 1.543-0.45312 0.39062 0 0.77734 0.078125 1.1367 0.23047l4.3867 1.8828zm18.047 26.082h-14.492l-2.0938-13.512 18.688-0.003906zm5.7578-17.605 0.003906-0.003906c0 0.8125-0.66016 1.4727-1.4688 1.4727h-23.055c-0.8125 0-1.4688-0.66016-1.4688-1.4727 0-0.80859 0.65625-1.4688 1.4688-1.4688h23.055c0.80859 0 1.4688 0.66016 1.4688 1.4688zm-13.504-19.086c-0.03125-0.71484 0.30469-1.3984 0.89062-1.8086 0.32031-0.21875 0.69922-0.33203 1.082-0.32812 0.32422 0.003906 0.64453 0.070312 0.94141 0.19531 0.91016 0.39844 1.5703 1.2227 1.75 2.2031l0.91797 4.9883-4.2188-2.7578c-0.84375-0.55078-1.3555-1.4844-1.3633-2.4922zm7.4727-10.102c0.14062-0.71094 0.63281-1.3008 1.3125-1.5625 0.20703-0.074219 0.42969-0.11719 0.65234-0.11719 0.47656 0.015625 0.93359 0.17969 1.3125 0.46484 0.80469 0.60547 1.2539 1.5742 1.1953 2.5781l-0.26172 5.0234-3.4648-3.6523c-0.68359-0.72266-0.96484-1.7383-0.74609-2.707zm10.602 10.582c0.70312-0.70312 1.7109-1.0117 2.6875-0.82031 0.71875 0.09375 1.3281 0.57031 1.6016 1.2422 0.26953 0.67188 0.16016 1.4375-0.28906 2.0039-0.57812 0.80859-1.5195 1.2812-2.5117 1.2617l-5.0391-0.125z" fill="#103f26"/>
 </g>
</svg>
